<svg version="1.0" xmlns="http://www.w3.org/2000/svg"
 width="1000.000000pt" height="1000.000000pt" viewBox="0 0 1000.000000 1000.000000"
 preserveAspectRatio="xMidYMid meet">
<g transform="translate(0.000000,1000.000000) scale(0.100000,-0.100000)"
fill="#000000" stroke="none">
<path d="M4890 8725 c-57 -18 -74 -33 -511 -435 -200 -185 -589 -542 -864
-795 -275 -253 -638 -587 -807 -742 -309 -284 -609 -560 -1289 -1185 -288
-265 -372 -347 -389 -384 -87 -178 39 -379 236 -377 42 0 77 7 106 21 25 13
177 145 368 321 179 165 328 300 332 301 4 0 9 -867 10 -1927 l3 -1928 27 -47
c16 -25 45 -60 65 -78 79 -64 -124 -60 2768 -60 2946 0 2696 -7 2782 73 26 23
56 62 67 87 l21 45 5 1961 5 1961 380 -344 c219 -198 398 -352 423 -364 31
-15 63 -21 108 -21 197 -1 320 199 233 378 -23 49 106 -69 -2154 1974 -665
602 -1300 1176 -1410 1276 -282 256 -303 273 -359 289 -60 18 -97 18 -156 0z
m1248 -1660 l1151 -1040 0 -2043 1 -2042 -2342 2 -2343 3 -3 1996 -2 1997 183
168 c165 153 657 605 1786 1643 217 199 400 361 406 359 7 -2 530 -471 1163
-1043z"/>
<path d="M4057 4616 c-55 -20 -104 -56 -133 -98 -56 -79 -54 -47 -54 -1145 l0
-1013 265 0 265 0 0 870 0 870 550 0 550 0 0 -870 0 -870 260 0 260 0 -2 1043
-3 1042 -27 47 c-36 61 -91 105 -152 123 -71 21 -1720 22 -1779 1z"/>
</g>
</svg>
