<?xml version="1.0" standalone="no"?>
<!DOCTYPE svg PUBLIC "-//W3C//DTD SVG 20010904//EN"
 "http://www.w3.org/TR/2001/REC-SVG-20010904/DTD/svg10.dtd">
<svg version="1.0" xmlns="http://www.w3.org/2000/svg"
 width="530.000000pt" height="530.000000pt" viewBox="0 0 530.000000 530.000000"
 preserveAspectRatio="xMidYMid meet">
<metadata>
Created by potrace 1.16, written by Peter Selinger 2001-2019
</metadata>
<g transform="translate(0.000000,530.000000) scale(0.100000,-0.100000)"
fill="#000000" stroke="none">
<path d="M1435 4226 c-92 -22 -196 -107 -246 -200 -40 -75 -40 -95 -37 -1411
l3 -1270 28 -60 c32 -68 103 -147 162 -178 103 -54 31 -51 1120 -54 900 -2
1016 0 1075 14 36 9 77 24 92 35 14 10 31 18 36 18 17 0 98 96 125 147 13 27
28 63 31 80 4 18 8 226 9 463 l1 430 -22 22 c-18 19 -32 22 -92 21 -119 -1
-110 34 -110 -451 0 -460 -2 -477 -59 -520 l-34 -27 -1021 0 c-1004 0 -1022 0
-1055 20 -21 12 -39 34 -47 55 -10 27 -13 306 -13 1290 0 1401 -5 1305 69
1343 33 16 99 17 1052 15 1013 -3 1017 -3 1045 -24 46 -34 57 -68 60 -199 5
-143 14 -162 68 -139 19 8 54 14 78 14 60 0 75 19 83 106 8 91 -10 205 -42
259 -63 108 -158 182 -262 204 -79 16 -2029 14 -2097 -3z"/>
<path d="M3783 3521 c-97 -43 -140 -79 -292 -244 -163 -178 -138 -163 -491
-303 -54 -21 -128 -52 -155 -64 -73 -33 -139 -60 -149 -60 -18 0 -104 -92
-116 -124 -6 -16 -8 -43 -4 -59 5 -25 0 -35 -32 -69 l-39 -39 1 -97 c0 -83 4
-103 24 -137 59 -101 146 -165 225 -165 40 0 56 -5 71 -21 27 -29 68 -49 103
-49 26 0 36 -10 78 -72 27 -40 75 -110 106 -156 31 -45 57 -86 57 -90 0 -5 18
-25 40 -47 l39 -38 43 18 c95 40 108 46 138 71 l30 26 -28 36 c-15 21 -48 69
-74 107 l-47 71 6 70 c3 45 1 84 -7 108 -15 46 -11 50 67 83 231 96 346 113
530 78 107 -21 178 -19 254 6 64 22 102 47 121 82 13 25 -4 78 -68 210 -8 16
-14 33 -14 39 0 5 -6 24 -14 41 -8 18 -26 61 -41 97 -15 36 -31 74 -36 85 -26
60 -113 279 -131 330 -6 17 -14 35 -18 40 -4 6 -13 28 -20 50 -7 22 -16 45
-20 50 -4 6 -13 28 -20 50 -7 22 -24 52 -37 67 -14 14 -22 31 -19 37 9 14 11
15 -61 -18z m-16 -273 c41 -119 49 -139 82 -209 11 -25 21 -53 21 -60 0 -8 6
-23 13 -34 7 -11 21 -42 31 -70 10 -27 30 -77 43 -110 14 -33 34 -82 45 -110
11 -27 26 -64 34 -82 l13 -31 -60 -7 c-33 -4 -106 -3 -162 1 -187 16 -235 10
-376 -41 -24 -9 -52 -20 -62 -26 -46 -24 -122 48 -163 156 -25 67 -37 166 -26
207 10 34 16 39 83 64 39 15 90 39 112 55 37 25 132 119 215 214 42 48 121
115 135 115 6 0 15 -15 22 -32z"/>
<path d="M1826 3369 c-36 -29 -36 -76 2 -112 l28 -27 631 0 631 0 26 31 c33
38 33 60 0 98 l-26 31 -633 0 c-625 0 -633 0 -659 -21z"/>
<path d="M4076 3201 c-17 -18 -17 -21 2 -63 10 -23 36 -86 57 -138 20 -52 46
-114 56 -137 10 -24 19 -47 19 -51 0 -5 9 -17 21 -28 21 -19 21 -19 59 23 50
57 68 137 49 214 -16 63 -101 162 -152 178 -72 22 -93 22 -111 2z"/>
<path d="M1827 2902 c-20 -21 -37 -45 -37 -54 0 -9 16 -30 35 -47 l36 -31 309
0 309 0 18 26 c10 14 32 45 50 69 30 41 31 44 14 59 -15 14 -61 16 -357 16
l-340 0 -37 -38z"/>
<path d="M1829 2443 c-42 -45 -41 -71 2 -108 l31 -25 267 0 c313 0 307 -2 289
85 -18 89 -6 85 -298 85 l-256 0 -35 -37z"/>
<path d="M1819 1951 c-41 -41 -38 -72 10 -110 l39 -31 549 0 c530 0 551 1 567
19 17 19 16 22 -26 83 l-45 63 -532 3 -532 2 -30 -29z"/>
</g>
</svg>
