<?xml version="1.0" standalone="no"?>
<!DOCTYPE svg PUBLIC "-//W3C//DTD SVG 20010904//EN"
 "http://www.w3.org/TR/2001/REC-SVG-20010904/DTD/svg10.dtd">
<svg version="1.0" xmlns="http://www.w3.org/2000/svg"
 width="670.000000pt" height="670.000000pt" viewBox="0 0 670.000000 670.000000"
 preserveAspectRatio="xMidYMid meet">
<metadata>
Created by potrace 1.16, written by Peter Selinger 2001-2019
</metadata>
<g transform="translate(0.000000,670.000000) scale(0.100000,-0.100000)"
fill="#000000" stroke="none">
<path d="M3110 5375 c-238 -48 -443 -160 -625 -340 -62 -60 -132 -140 -158
-176 -99 -141 -177 -327 -207 -494 -9 -51 -20 -78 -40 -100 -53 -58 -55 -66
-58 -294 -5 -285 -4 -290 68 -365 45 -49 62 -75 80 -130 69 -209 227 -426 423
-578 43 -34 80 -71 83 -84 7 -28 103 -120 140 -134 15 -6 52 -10 83 -9 47 2
60 8 92 36 50 45 57 80 28 139 -40 78 -127 134 -209 134 -68 0 -116 29 -224
133 -108 105 -199 249 -252 400 l-13 37 49 46 c60 56 67 75 43 122 -16 32 -19
71 -23 299 -3 156 -9 266 -15 271 -5 4 -26 20 -46 35 -42 30 -42 34 -1 167 50
165 169 354 286 455 218 189 447 275 731 275 284 0 513 -86 731 -275 117 -100
234 -288 287 -455 43 -139 43 -140 -6 -175 -57 -41 -65 -79 -66 -295 -1 -105
-7 -207 -16 -255 -19 -107 -21 -99 28 -152 70 -76 140 -98 215 -68 51 22 130
102 142 145 11 38 14 438 4 487 -3 17 -23 52 -43 79 -29 38 -41 69 -55 133
-57 262 -158 445 -355 641 -189 188 -401 302 -641 346 -96 17 -373 17 -460 -1z"/>
<path d="M3144 5010 c-173 -30 -311 -91 -439 -192 -124 -99 -225 -243 -277
-396 -22 -64 -23 -81 -23 -362 0 -258 2 -299 17 -330 9 -19 27 -64 38 -100 35
-106 135 -299 200 -385 124 -166 257 -281 401 -349 116 -55 185 -69 314 -63
147 6 236 37 370 128 194 131 360 351 464 614 57 145 69 236 72 535 3 276 4
274 -58 410 -56 123 -179 262 -307 348 -203 136 -498 190 -772 142z"/>
<path d="M4061 2831 c-12 -16 -21 -31 -21 -34 0 -3 -37 -81 -81 -174 -45 -92
-82 -175 -82 -183 0 -8 -12 -35 -27 -60 -14 -25 -59 -111 -100 -193 -40 -81
-75 -145 -77 -143 -2 2 -19 47 -37 100 -19 53 -38 102 -43 109 -5 7 -14 28
-21 47 -31 99 -91 244 -104 251 -8 4 -34 3 -59 -2 -48 -12 -139 -5 -171 12
-13 7 -18 7 -14 1 3 -6 1 -12 -5 -14 -10 -3 -62 -132 -104 -253 -8 -22 -26
-71 -40 -110 -15 -38 -29 -80 -32 -93 -3 -12 -13 -38 -23 -57 l-18 -35 -40 82
c-140 290 -201 418 -216 453 -10 22 -32 69 -48 105 -106 228 -94 215 -158 184
-27 -13 -82 -39 -122 -58 -40 -18 -131 -62 -203 -96 -71 -34 -155 -73 -185
-87 -254 -119 -467 -368 -525 -615 -19 -83 -22 -637 -3 -656 17 -17 3669 -17
3686 0 9 9 12 90 12 303 0 257 -2 301 -20 368 -61 241 -272 484 -520 600 -30
14 -113 53 -185 87 -71 34 -173 83 -225 107 -52 25 -112 54 -132 64 l-37 19
-20 -29z"/>
</g>
</svg>
